<?xml version="1.0" encoding="utf-8"?><!DOCTYPE svg PUBLIC "-//W3C//DTD SVG 1.1//EN" "http://www.w3.org/Graphics/SVG/1.1/DTD/svg11.dtd"><svg version="1.1" id="Contours" xmlns="http://www.w3.org/2000/svg" xmlns:xlink="http://www.w3.org/1999/xlink" x="0px" y="0px" width="542.139465px" height="542.139465px" viewBox="0.000011 -0.000001 542.139465 633.639893" enable-background="new 0 0 542.139465 542.139465" xml:space="preserve" stroke="black" fill="none" stroke-linecap='round' stroke-linejoin='round'><path class="selected"  fill="#000000" opacity="1.000000" stroke="none" 
 	d="
M499.974080 333.289368 C502.345296 339.660584 504.417378 345.799378 506.599385 351.898865 C509.766072 360.751038 513.320515 369.478150 516.128193 378.440797 C518.452046 385.858704 520.228474 393.484559 521.673115 401.126893 C522.468464 405.334351 521.993550 409.770814 522.253132 414.094361 C522.435505 417.131959 523.059041 420.145631 523.195576 423.182984 C523.863484 438.041077 523.349751 452.910340 519.985493 467.382569 C518.627705 473.223694 515.425923 479.095704 511.648396 483.822938 C502.726155 494.988160 493.117695 505.625306 483.413228 516.130860 C480.976399 518.768922 477.180073 520.194276 473.921834 522.022584 C464.055501 527.558900 454.099934 532.937989 444.282368 538.558533 C441.320881 540.254090 441.416890 543.473939 442.774495 545.925477 C445.025044 549.989930 447.768391 553.810242 453.241658 554.116761 C454.690877 554.198060 456.744038 554.820740 457.404439 555.886292 C463.255269 565.325867 467.626423 575.386414 464.094197 586.670472 C461.693013 594.341492 455.684529 599.361390 448.643696 603.037415 C443.848591 605.540833 439.198201 608.405213 434.209126 610.434876 C425.821248 613.847352 417.393941 616.006653 407.862935 615.625794 C399.759480 615.302064 398.107380 610.545594 395.108296 605.348206 C392.727254 601.221619 390.343648 597.432313 389.841084 592.432679 C389.640217 590.433900 386.487752 588.515320 383.947468 590.892884 C380.174336 594.424500 376.850300 598.575013 370.884907 598.067078 C370.651753 598.047425 370.226521 598.388734 370.155476 598.637513 C368.657429 603.880189 363.324849 604.558167 359.665120 605.646668 C353.993672 607.333558 354.743672 611.135316 355.375203 614.411317 C357.207905 623.918519 354.308247 627.504456 345.030293 628.225281 C338.727559 628.715027 332.591817 631.113343 326.327839 632.396546 C314.956685 634.725770 303.798482 634.306946 294.489888 626.552308 C290.102254 622.897156 286.858967 617.834778 283.251851 613.287415 C280.697224 610.066834 278.640950 606.427796 275.920430 603.368470 C273.421956 600.558777 273.358113 597.385193 275.067708 594.925355 C278.207478 590.408021 283.559041 589.170472 286.946614 591.250672 C289.598408 592.879090 292.219624 594.585999 295.004536 595.951600 C295.811360 596.347108 297.658955 596.041077 298.085225 595.414490 C298.564168 594.710633 298.291585 593.109315 297.799519 592.191102 C293.393818 583.969666 291.431172 575.230775 291.140645 565.911927 C290.857930 556.842957 289.830342 547.799134 289.283772 538.734864 C289.193074 537.231873 290.172383 535.682740 290.179890 534.152527 C290.244893 520.826234 289.614339 507.613709 287.530354 494.348267 C286.174153 485.715333 287.771016 476.620057 288.027363 467.731446 C288.119526 464.535035 288.204548 461.337220 288.215291 458.139893 C288.241963 450.192444 287.649739 442.193665 288.351887 434.308716 C289.555684 420.791505 291.512959 407.339478 293.288106 393.877808 C293.479634 392.424744 294.980855 391.133423 295.134419 389.688416 C295.438130 386.830262 294.848897 383.858582 295.288167 381.036500 C297.347127 367.808900 293.030659 355.281922 291.091206 342.533021 C289.622029 332.875550 287.438801 323.345704 281.311177 315.091004 C274.344807 305.706238 265.997883 303.770264 256.416035 309.688111 C253.867879 311.261902 252.876973 315.393922 251.232991 318.385377 C249.232991 322.024659 247.132405 325.582520 242.170796 324.964173 C241.127217 324.834107 239.333943 323.714234 239.355794 323.102845 C239.637776 315.195557 239.502217 307.098694 244.517354 300.301575 C247.344685 296.469605 251.532185 294.888734 256.143757 294.655152 C262.613667 294.327454 269.105061 293.982606 275.564717 294.230836 C277.023518 294.286927 278.407551 296.737672 279.794942 298.117310 C283.438313 301.740052 288.054219 304.828187 290.461140 309.144898 C293.899312 315.311219 295.624470 322.418030 298.258015 329.052979 C299.847737 333.057923 302.036946 336.835816 303.476948 340.886292 C305.139058 345.561524 307.173298 350.020814 306.624959 355.489503 C306.322163 358.509705 309.271565 361.849976 310.736287 365.054444 C314.894734 374.152466 315.022297 383.637513 313.477254 393.297242 C312.675252 398.312012 311.807942 403.324647 311.258504 408.369691 C310.143269 418.609376 309.294087 428.877869 308.194905 439.119446 C307.634968 444.336243 306.728291 449.515015 306.075764 454.723206 C305.922688 455.945130 306.256123 457.220093 306.209248 458.464722 C305.904988 466.551392 305.455708 474.634339 305.284260 482.723328 C305.230916 485.243653 305.897725 487.778199 306.222798 490.307801 C307.226338 498.116761 308.755208 505.904725 309.076741 513.742005 C309.407307 521.800355 308.301900 529.907471 308.311604 537.992615 C308.318318 543.635804 309.138386 549.278260 309.608174 554.920106 C309.795552 557.169495 310.426655 559.466004 310.158772 561.655701 C308.216817 577.530823 315.349263 588.525086 328.316792 596.698670 C335.300130 601.100281 334.675435 600.403992 341.919758 596.264100 C348.224995 592.660706 355.804158 591.220643 362.901814 589.097108 C366.494465 588.022156 370.485615 588.063050 373.880025 586.619691 C376.054646 585.695130 379.096089 582.815613 378.920186 581.102967 C378.384419 575.886780 381.376485 572.719666 383.702778 568.908631 C385.033345 566.728821 386.168843 563.940247 386.071980 561.477723 C385.849568 555.823792 387.858174 551.573914 391.869526 547.772767 C394.288594 545.480408 396.251912 542.663148 398.194661 539.922059 C401.166096 535.729188 398.124837 533.403382 394.871785 532.358155 C389.560505 530.651673 387.928731 526.578126 386.122090 522.040467 C384.472737 517.898133 382.459981 513.700196 379.699177 510.254456 C376.649495 506.448426 374.789998 503.231568 375.967000 497.914246 C376.907002 493.667603 375.166707 488.898621 375.345723 484.390443 C375.493245 480.674805 375.755696 476.366212 377.686482 473.464295 C380.325764 469.497681 377.956380 467.006104 376.236897 464.841614 C374.125081 462.183289 371.083089 459.908753 367.978901 458.469483 C361.936116 455.667481 356.859334 452.263428 355.891865 445.150941 C355.278401 440.640992 352.010213 438.175965 349.085896 435.482911 C345.945454 432.591126 344.507710 429.327210 344.078328 424.985108 C343.398335 418.109986 339.138508 413.554139 333.046589 410.184632 C328.100911 407.449158 323.076130 404.059022 324.271809 397.021363 C324.630147 394.911866 325.298848 392.765137 326.279317 390.870362 C328.168782 387.218506 326.575276 384.211426 324.872578 381.235047 C323.243794 378.387879 321.339070 375.699647 319.625508 372.898804 C319.317708 372.395753 319.059651 371.555237 319.268269 371.090089 C321.706380 365.653199 317.874776 361.216798 317.031026 356.314149 C316.907002 355.593812 317.216328 354.809937 317.211812 354.056092 C317.197590 351.664368 317.807637 349.429993 313.884785 348.878541 C308.232808 348.083985 310.912434 342.372376 309.306172 339.087403 C306.798970 333.959839 308.484517 327.608094 303.846394 322.738953 C301.628010 320.410035 302.564046 315.405701 298.387410 313.702698 C298.749898 313.231324 299.451680 312.726746 299.409443 312.294923 C299.296345 311.138062 299.025960 309.934388 298.522297 308.892213 C297.712361 307.216370 295.508259 305.188111 295.934407 304.133790 C297.208455 300.981812 298.947774 302.466736 301.065327 304.141785 C303.021626 305.689332 305.868245 306.104615 308.313740 307.041932 C314.498128 309.412293 320.769673 311.590027 326.806172 314.291993 C328.771504 315.171631 330.077046 317.477357 331.755635 319.054871 C336.524678 323.536622 341.489094 327.822999 346.077962 332.480530 C350.802266 337.275757 347.435322 342.384278 345.606953 346.984009 C343.496907 352.292237 343.278889 357.551331 342.818257 363.132630 C342.252278 369.990967 345.177022 374.636231 348.210286 379.774354 C350.563313 383.760255 349.674214 389.321839 345.771687 392.887818 C343.032735 395.390565 341.723164 398.021912 343.253193 401.524964 C344.372944 404.088685 346.334370 404.030884 348.310933 401.619874 C348.590596 401.278748 349.344929 401.326844 349.879536 401.194825 C350.439046 405.563233 354.577351 405.497803 357.321980 406.973939 C363.375142 410.229615 364.257466 411.624451 363.224019 418.409363 C362.407612 423.769898 364.575764 427.924500 369.815571 431.039368 C376.995259 435.307679 376.680867 435.412293 375.578938 443.574830 C375.374837 445.086793 379.543721 447.337647 381.864339 449.011719 C386.926167 452.663026 392.435872 455.775696 397.105733 459.859559 C400.245686 462.605469 402.333943 466.587952 404.736226 470.123597 C405.492940 471.237183 406.516499 473.066956 406.099263 473.935975 C403.242085 479.888123 406.570088 485.699769 406.064473 491.496155 C405.867146 493.757691 403.886860 495.868409 402.699788 498.037476 C401.891682 499.513856 400.312031 501.040101 400.438679 502.419007 C400.557393 503.711365 402.253621 505.236329 403.624348 505.971009 C409.750508 509.254334 414.376546 505.151490 419.295796 502.500611 C421.053486 501.553589 422.909138 500.254578 424.779622 500.146424 C431.663167 499.748292 435.025899 495.451661 437.980366 489.921082 C440.990742 484.285950 444.862507 479.118470 448.108662 473.600037 C452.198506 466.647156 455.949299 459.679139 457.396870 451.412598 C459.465535 439.598756 463.172749 428.072693 465.265278 416.261658 C466.239400 410.762940 465.833455 404.724854 464.700215 399.209229 C462.354451 387.792481 459.433858 376.463257 456.105549 365.289918 C453.959553 358.085755 450.315510 351.338929 447.961445 344.183594 C442.198079 326.665650 433.710774 310.379090 425.531270 293.977235 C418.146321 279.168397 410.339009 264.547059 402.127339 250.180604 C395.129475 237.938050 390.859944 224.710938 387.430379 211.286805 C384.735921 200.739991 383.615437 189.753907 382.309529 178.901124 C381.225667 169.894349 380.789998 160.803223 380.267598 151.737977 C380.015401 147.362061 380.364216 142.954407 380.199299 138.570130 C379.561848 121.626588 382.543355 105.320191 388.264424 89.404664 C389.784505 85.175904 389.911275 80.415040 391.629109 76.295228 C395.165852 67.813294 398.956624 59.304871 405.355122 52.508240 C412.395650 45.029603 419.230855 37.154420 427.262715 30.866273 C436.327901 23.769074 446.507771 18.048646 456.437398 12.122437 C461.445637 9.133393 467.306843 7.523926 472.162617 4.344178 C476.355672 1.598298 480.412190 -0.295715 485.416585 0.038117 C495.473286 0.709016 505.909382 -0.092254 515.497151 2.388184 C529.327839 5.966218 542.437398 16.464539 542.134297 31.322632 C541.993489 38.223756 541.209065 45.160828 540.020405 51.959962 C539.685750 53.874512 537.096150 56.461243 535.177327 56.825745 C530.101948 57.789735 524.828084 57.715272 519.632222 58.036256 C515.991597 58.261231 515.558430 55.472901 515.283528 52.976868 C514.911030 49.594483 517.550130 49.880738 519.655415 50.073304 C524.454060 50.512208 528.372090 49.191041 530.152119 44.442200 C531.278767 41.436463 527.251912 31.961243 524.427266 30.046998 C516.902302 24.947327 509.483967 22.750947 500.952778 28.613587 C493.286519 33.881898 484.430073 37.489442 477.060139 43.093995 C471.643696 47.213013 467.602009 53.231873 463.270527 58.661622 C458.219685 64.993043 453.059041 71.317200 448.787373 78.169007 C443.642537 86.421570 439.345235 95.157044 437.121052 104.830079 C435.848469 110.364564 433.554219 115.665711 431.695698 121.063538 C428.868794 129.274048 426.730183 137.549073 428.988484 146.307679 C431.745564 157.000672 434.704243 167.648499 437.159016 178.410828 C439.463032 188.512818 440.905232 198.815247 443.324666 208.885804 C445.272236 216.992493 447.672566 225.054200 450.667988 232.829224 C454.428853 242.591065 459.109761 251.994507 463.185872 261.640443 C465.882405 268.021607 467.802998 274.755616 470.808430 280.975342 C474.912861 289.469300 479.641011 297.667725 484.244954 305.912903 C489.320149 315.002198 494.557393 324.001099 499.974080 333.289368 M479.224080 373.539368 C481.697835 383.679810 484.044758 393.853272 486.680318 403.951478 C489.416340 414.434205 492.415547 425.388428 487.884846 435.487366 C484.146626 443.819764 481.693501 452.468384 480.667866 461.041505 C479.653584 469.519776 476.431233 476.404236 472.155720 483.123475 C466.811360 491.522339 461.806477 500.268677 453.487202 506.333741 C451.905049 507.487122 450.637044 509.071412 449.224080 510.456849 C450.988850 510.317689 452.762410 510.248048 454.516987 510.027650 C463.499898 508.899293 470.923421 504.966431 476.225361 497.513001 C485.439229 484.560059 496.139851 472.416138 498.879658 455.910889 C499.857442 450.020386 502.006550 444.177186 502.026021 438.307068 C502.060933 427.755494 501.000996 417.191224 500.164937 406.650757 C499.867268 402.898804 499.114583 399.143494 498.179219 395.489625 C495.986226 386.923157 493.669636 378.383851 491.168721 369.902650 C490.172261 366.523438 488.517903 363.341920 487.235982 360.042054 C486.120442 357.170350 485.147603 354.243165 484.031331 351.371827 C483.530110 350.082642 482.425191 348.912110 482.290181 347.615296 C481.418416 339.238648 477.980000 331.757996 474.148640 324.483704 C471.895344 320.205445 468.575398 316.492127 466.287495 312.228333 C460.958455 302.297059 455.888875 292.223572 450.878987 282.125855 C449.380330 279.105286 448.420064 275.816834 447.225484 272.646363 C444.184529 264.575318 441.688557 256.242432 437.959309 248.503541 C434.379536 241.074647 431.019124 233.691834 429.175313 225.630555 C428.560689 222.943299 427.331380 220.401246 426.464497 217.766053 C425.016560 213.364136 422.345540 208.893067 422.506184 204.536561 C422.794575 196.716553 418.391499 189.695985 419.966939 181.640198 C420.769063 177.538331 418.995015 172.892823 418.181172 168.531190 C417.757954 166.262696 417.162129 163.947755 416.176350 161.876588 C412.248250 153.624329 410.125569 144.734193 410.509114 135.860169 C410.862874 127.672913 413.213704 119.478516 415.441243 111.498292 C416.959370 106.059632 419.898762 101.030396 421.948750 95.720032 C422.618306 93.985779 421.934407 91.623719 422.815877 90.094178 C427.326741 82.266297 432.151631 74.619568 436.854695 66.902161 C437.824849 65.310059 438.557210 63.535035 439.720357 62.105652 C443.376301 57.612977 447.427327 53.417054 450.774312 48.714173 C451.674641 47.449219 451.278462 44.245057 450.224019 42.957520 C449.502400 42.076539 446.184834 42.292603 444.755269 43.184388 C434.078572 49.844971 424.659016 58.110352 416.378804 67.531434 C411.118184 73.516724 405.241658 79.335389 403.933552 87.831849 C403.354390 91.593323 403.489888 95.640443 402.097615 99.069276 C397.310811 110.858338 397.895100 123.421509 396.414570 135.646546 C395.660298 141.874756 396.949055 148.341004 397.210286 154.703858 C397.596699 164.117860 397.125203 173.643128 398.430012 182.922730 C399.858113 193.080140 403.234273 202.947022 405.146382 213.056824 C408.295369 229.706788 417.505147 243.377686 426.097859 257.375001 C431.537861 266.236573 438.363606 273.959839 441.756917 284.431397 C444.033711 291.457398 448.646138 298.142762 451.159749 305.480714 C451.660237 306.941590 451.957722 308.489869 452.601155 309.881165 C456.676167 318.692322 461.186360 327.321839 464.855427 336.296448 C469.807698 348.409424 474.130940 360.779542 479.224080 373.539368 M437.224141 586.539490 C438.890828 584.761780 441.276570 583.263856 442.096394 581.156556 C445.214009 573.142518 440.120930 566.248353 431.528767 565.972474 C428.399556 565.872132 424.995747 565.636902 422.256672 564.331238 C419.023152 562.789979 416.552205 559.708558 413.396748 557.918641 C411.806843 557.016785 409.434895 557.493592 407.416585 557.346863 C407.352437 558.875184 406.939290 560.492493 407.300801 561.912415 C407.942525 564.432801 409.139790 566.806702 409.919514 569.299866 C410.170613 570.102601 410.178120 571.596619 409.717488 571.902894 C407.405049 573.440491 404.948933 574.787293 402.452962 576.018006 C397.905171 578.260193 396.563252 581.773255 399.512654 585.687318 C402.056904 589.063660 405.368794 591.851014 408.204487 595.021180 C411.542317 598.752869 415.120625 599.674500 419.469563 597.237366 C425.296162 593.972108 430.979329 590.450867 437.224141 586.539490 M322.724080 334.039368 C319.346089 332.994691 315.967122 331.953309 312.590840 330.903321 C311.649251 330.610413 310.715718 330.291810 309.778462 329.984986 C310.346150 330.922181 310.745381 332.036561 311.511494 332.765076 C314.368855 335.482300 317.069905 338.167054 317.300740 342.515443 C317.354512 343.528809 318.789815 345.411133 319.277424 345.314698 C324.688618 344.245484 326.780537 338.712525 322.724080 334.039368 M421.224080 527.539368 C422.224080 526.792420 423.964436 526.109193 424.035481 525.282410 C424.123005 524.263856 422.693806 522.152100 422.142171 522.223694 C420.548360 522.430482 419.065877 523.495606 417.539693 524.223756 C418.601155 525.495606 419.662617 526.767518 421.224080 527.539368 z"/><path class="selected"  fill="#000000" opacity="1.000000" stroke="none" 
 	d="
M305.224080 243.039368 C302.879231 244.884217 301.123738 246.833375 299.149190 248.526978 C298.256306 249.292847 296.920735 249.972474 295.798543 249.953431 C293.304341 249.911256 292.694905 250.335511 292.640034 253.224488 C292.596394 255.520203 290.607564 258.787903 288.576680 259.791688 C285.793049 261.167420 282.132161 260.687562 278.884846 261.228516 C275.611531 261.773926 275.953816 264.338135 276.367634 266.645569 C276.863118 269.408448 278.355427 272.232361 278.001301 274.837586 C277.674275 277.243775 275.970357 280.502259 273.982625 281.388489 C271.312947 282.578675 267.362996 282.847047 264.724507 281.722962 C260.211690 279.800416 255.259785 277.792542 254.694050 271.248414 C254.466328 268.614258 251.538289 266.303712 250.336995 263.622803 C249.796712 262.417054 249.942097 259.850770 250.721150 259.338563 C252.107442 258.426881 254.357930 258.025391 255.992146 258.432801 C263.253865 260.242860 265.540669 259.565369 269.274312 253.417725 C269.891682 252.401246 269.910664 251.025391 270.226460 249.820923 C271.024617 246.777100 272.049031 244.557618 275.959004 243.855775 C281.068989 242.938477 286.144978 241.138611 290.868123 238.931824 C297.013508 236.060609 297.087178 231.783265 291.581502 227.888123 C290.284993 226.970887 288.953999 226.078431 287.778645 225.019532 C285.852009 223.283753 283.555501 221.893250 285.110249 218.390748 C286.266926 215.784791 285.042012 212.974244 284.427693 210.141175 C283.057515 203.822571 284.194966 197.878480 291.436726 195.383423 C294.237996 194.418336 294.374287 192.830140 294.024312 190.204835 C293.638875 187.313294 294.494771 184.576356 289.714070 184.866883 C286.318440 185.073304 285.190022 179.996705 287.224080 174.991456 C291.665669 164.062073 287.953389 152.671387 277.877400 146.011597 C276.201985 144.904175 274.474202 143.652955 273.283650 142.079957 C270.553670 138.472962 272.934529 135.510804 275.070271 132.726502 C278.300130 128.515809 277.760945 125.978943 274.275838 122.355042 C271.994526 119.982850 270.690571 116.582215 269.263875 113.496644 C266.873921 108.327820 264.705342 103.055421 262.500081 97.802918 C260.452778 92.926819 258.595235 88.311829 259.797383 82.483155 C260.324849 79.925843 260.845784 75.390870 256.622212 72.452698 C253.837849 70.515626 253.235066 65.661866 251.147359 62.443787 C248.979451 59.102112 246.453023 55.898316 243.609883 53.118409 C241.174031 50.736695 238.114216 48.971985 235.250752 47.053101 C228.868245 42.775880 222.478230 38.505616 215.973836 34.419434 C215.103901 33.872925 213.522633 34.599732 212.323628 34.407349 C209.694417 33.985413 206.495717 34.116273 204.622670 32.637208 C201.303578 30.016114 198.752766 30.878052 195.972035 32.831605 C194.137044 34.120667 192.207326 35.418519 190.768056 37.096619 C188.041463 40.275696 185.813801 38.288636 183.478383 36.777100 C181.367055 35.410584 179.418873 33.739197 177.183430 32.640198 C176.099904 32.107423 174.449635 32.304139 173.183735 32.645020 C169.454610 33.649354 165.816823 34.997132 162.079548 35.964051 C161.153401 36.203675 159.565358 35.862183 158.997822 35.186341 C155.578755 31.114869 152.566762 33.755738 149.315602 35.393067 C145.742695 37.192567 142.996144 41.023621 138.244221 40.044617 C136.395527 39.663758 134.143696 39.894105 132.744282 38.902283 C125.253041 33.593140 119.166188 39.418519 117.059651 46.530213 C116.427174 48.665467 113.898579 51.692628 112.123494 51.773194 C105.884389 52.056275 104.938832 56.779359 103.303547 60.879273 C102.217549 63.602112 102.108815 66.700440 101.174611 69.501282 C99.647023 74.081238 95.915791 74.779786 92.208272 71.570985 C88.936604 68.739503 85.583241 65.972901 82.041615 63.498841 C80.819569 62.645203 78.921864 62.758851 77.332783 62.430665 C77.182698 64.019715 76.628468 65.696412 76.950734 67.183106 C78.568989 74.648926 80.593678 82.028870 82.118550 89.511780 C83.073170 94.196473 77.033620 98.390931 72.310170 96.649781 C70.570973 96.008729 68.778370 95.226929 66.972584 95.115052 C63.789357 94.917664 60.536030 93.595887 62.722767 100.005860 C64.113423 104.082398 65.308858 108.614014 66.636799 112.921570 C68.357808 118.504151 66.823475 120.856080 61.125081 121.039368 C54.927601 121.238709 51.532735 125.124573 53.367695 130.811402 C54.374623 133.932130 53.764485 136.001282 52.313038 138.662293 C49.023488 144.693238 51.043599 149.864319 57.220296 152.549622 C58.209981 152.979920 59.377431 153.332703 60.046376 154.089356 C60.977986 155.143067 62.021748 156.539673 62.032277 157.797730 C62.038441 158.536683 60.186452 159.841675 59.080495 159.946778 C53.457570 160.480897 47.789204 160.545167 42.169789 161.105347 C39.242360 161.397156 36.284505 162.100892 33.516896 163.104981 C29.671986 164.500001 26.877614 162.884827 26.188435 158.679810 C25.591359 155.036622 24.861989 152.253174 29.933339 150.504578 C35.102681 148.722230 35.966359 144.496277 34.245473 138.813477 C33.703297 137.023072 33.789662 134.952759 32.931141 133.366212 C31.112233 130.005006 32.267872 127.271790 35.030507 125.903992 C41.405995 122.747498 39.195088 117.714905 38.594960 112.901124 C38.231343 109.984376 37.049306 106.796143 37.808461 104.187867 C39.582539 98.092713 47.096089 96.809205 52.796681 101.020325 C53.798176 101.760193 55.309682 101.809571 56.585652 102.177796 C55.853139 101.353028 54.878285 100.633851 54.459065 99.672425 C54.071370 98.783265 53.812092 97.170533 54.302083 96.677918 C56.909474 94.056641 56.086751 91.504090 55.374226 88.310914 C53.586537 80.299195 52.458150 72.131837 51.342854 63.988892 C51.194203 62.903565 52.412343 60.916627 53.426747 60.556702 C54.888020 60.038087 56.976796 60.147523 58.385182 60.834656 C62.583485 62.883057 65.935963 61.052186 66.251729 56.323975 C66.432362 53.618958 66.524312 50.822877 67.291310 48.257752 C69.801594 39.862488 74.750386 38.628235 81.222645 44.518860 C83.620808 46.701478 85.976796 48.983521 88.638051 50.801514 C89.958058 51.703187 92.086354 52.230775 93.539937 51.823853 C94.410023 51.580262 95.286580 49.125245 95.115132 47.799378 C94.511220 43.130189 93.358113 38.534913 92.613148 33.879700 C92.253712 31.633607 91.815693 29.149903 92.463917 27.107239 C92.751485 26.201142 96.129841 25.245209 97.240040 25.863984 C99.061940 26.879517 100.111409 29.220154 101.605092 30.896424 C105.967396 35.792115 110.516713 34.894715 113.261403 28.851441 C115.239003 24.497040 117.315510 20.148041 119.812947 16.082337 C121.657063 13.080292 124.948201 13.042206 127.482319 14.974335 C130.050587 16.932435 131.909443 19.794678 134.257161 22.077698 C135.788930 23.567322 137.690144 25.854279 139.333638 25.778687 C141.865803 25.662232 144.031117 24.491181 144.553029 20.514802 C145.464284 13.572114 146.293873 14.960389 153.614918 15.517914 C161.528615 16.120637 168.793416 18.571412 176.397908 19.862855 C178.730916 20.259034 182.069447 19.261017 183.802022 17.661072 C186.793629 14.898377 188.644887 16.745301 190.094929 18.577027 C192.375203 21.457520 194.620869 21.795838 197.673268 20.122254 C203.495442 16.930024 209.206349 13.941376 215.846028 18.888398 C217.631428 20.218659 220.811848 20.095338 223.313344 19.954468 C227.858784 19.698609 231.647725 21.148408 235.362935 23.581513 C238.059102 25.347199 240.988667 27.415528 244.028035 27.848817 C249.025715 28.561158 251.023762 31.507081 253.409443 35.423035 C256.387105 40.310609 260.072713 45.313660 264.677998 48.490479 C268.380635 51.044617 273.862568 51.258546 278.636067 51.955018 C283.518391 52.667359 286.186604 56.109803 284.935628 60.863526 C284.535176 62.384888 284.319478 63.989625 284.275105 65.563416 C284.142354 70.267823 285.720479 75.880067 283.680501 79.453736 C281.123555 83.932679 283.112874 86.757264 283.999348 90.343629 C285.161275 95.044068 286.326253 99.757081 287.128987 104.525452 C287.397297 106.119202 286.248128 107.906006 286.284138 109.593140 C286.378987 114.031739 284.560872 119.316285 289.836751 122.035462 C294.622761 124.502015 292.945210 129.233094 294.048421 132.830689 C296.453633 140.674256 300.215474 143.654359 307.680440 142.039429 C311.678181 141.174500 318.692769 143.876160 320.762593 147.077881 C322.910115 150.399598 320.790364 155.003297 316.659382 156.049683 C315.613606 156.314576 314.535359 156.578187 313.581868 157.059937 C306.740376 160.515931 306.484822 164.519349 312.575703 168.968323 C314.980122 170.724549 318.425252 172.673402 318.950154 175.070252 C320.314107 181.298340 320.250325 187.613343 315.738179 193.291382 C313.687764 195.871583 309.372334 197.050599 310.084553 201.883973 C310.515095 204.805726 311.426045 206.586121 313.947224 208.143189 C316.000203 209.411194 317.486531 211.596802 319.224080 213.375550 C317.262349 214.930176 315.529011 217.111268 313.297139 217.924927 C305.814351 220.652833 305.052571 223.367860 310.712239 229.027527 C316.647175 234.962464 316.503255 236.355652 309.376851 241.026246 C308.217549 241.786194 306.944539 242.372681 305.224080 243.039368 z"/><path class="selected"  fill="#000000" opacity="1.000000" stroke="none" 
 	d="
M75.974080 285.789368 C80.181447 285.039368 84.138630 284.199647 88.096211 284.197755 C89.805104 284.196961 91.514790 285.928040 93.224080 286.872437 C92.125935 288.261414 91.307149 290.372620 89.884602 290.922730 C80.317982 294.622559 78.146229 303.413331 75.277760 311.659913 C73.549885 316.627259 72.292775 321.763306 70.949330 326.856568 C70.506001 328.537354 70.042592 330.382264 70.288777 332.048707 C72.408558 346.399293 67.337422 359.682068 64.584981 373.341614 C63.652638 377.968568 64.728535 382.969300 64.115193 387.699219 C63.352070 393.583863 61.718922 399.351380 60.595173 405.195130 C59.700673 409.846741 58.597401 414.513062 58.322377 419.215821 C57.934041 425.856263 57.970357 432.549073 58.305043 439.195374 C58.568989 444.436585 59.852528 449.626099 60.123280 454.867493 C60.312642 458.533753 59.151509 462.265137 59.299458 465.938965 C59.760487 477.388611 60.609669 488.822205 61.166524 500.268922 C61.247975 501.942994 60.601552 503.664918 60.213978 505.346680 C59.584614 508.077576 58.690785 510.764405 58.287922 513.525147 C57.970357 515.701295 59.011555 518.391175 58.076314 520.102662 C55.279866 525.220154 61.167134 527.809449 60.959401 532.176270 C60.720753 537.193482 61.351307 542.246888 61.435963 547.287415 C61.468922 549.250184 62.550007 550.759827 61.929127 553.257142 C60.672413 558.311951 61.269154 563.847108 61.295491 569.183289 C61.300221 570.137635 62.168599 571.142640 62.827229 571.974427 C62.916676 572.087342 64.077809 571.180970 64.806233 570.993958 C66.376912 570.590394 67.999806 570.040589 69.581837 570.096985 C74.356343 570.267152 79.049733 569.567689 83.851216 571.818055 C87.769673 573.654481 95.012868 568.380189 96.303975 564.242005 C96.684895 563.021058 98.022999 562.098572 98.922444 561.039368 C99.689625 562.064271 100.814534 562.981019 101.162617 564.132630 C102.733021 569.328187 104.039601 574.602601 105.530568 579.823182 C106.335591 582.642029 107.548939 585.359315 108.176442 588.210755 C109.479268 594.130677 104.271901 597.556702 102.368886 602.267152 C101.102193 605.402283 98.646626 608.046326 97.286641 611.156678 C93.700795 619.357484 86.661824 617.785706 80.754109 614.042542 C80.204915 613.694642 79.753102 613.155701 79.337758 612.639466 C75.345570 607.679261 71.033284 604.112122 63.948018 606.932313 C60.856129 608.163026 57.522511 607.106995 54.208241 606.145569 C43.483021 603.033875 33.651936 606.514954 24.370595 611.530213 C19.519429 614.151551 14.499074 614.405701 9.417409 613.929993 C5.195393 613.534852 2.086873 610.651185 0.582356 606.775330 C-0.955943 602.812440 0.730061 599.002381 3.571034 596.371522 C7.650136 592.594056 12.271718 589.390320 16.747212 586.056458 C21.438069 582.562195 27.002797 579.893006 30.804036 575.631043 C37.176381 568.486390 42.425252 560.211610 42.147938 550.048646 C41.796162 537.156495 40.051167 524.255006 40.425130 511.401734 C40.957448 493.103394 43.193226 474.860108 44.032216 456.562562 C44.360982 449.392090 42.033131 442.093934 42.410756 434.932801 C43.077443 422.290223 44.650624 409.676881 46.286030 397.108765 C48.245045 382.053895 51.342946 367.154053 51.329121 351.854432 C51.324696 346.967286 53.443410 341.999390 53.013295 337.210145 C52.391499 330.285828 54.310719 324.058533 56.287526 317.793702 C59.804066 306.649354 61.413228 294.292176 73.582112 288.126527 C74.430745 287.696595 75.016194 286.747193 75.974080 285.789368 z"/><path class="selected"  fill="#000000" opacity="1.000000" stroke="none" 
 	d="
M232.474080 239.289368 C224.862568 247.502320 216.029591 244.429505 207.454548 242.738831 C195.803853 240.441651 187.404896 232.228638 177.840565 226.146851 C174.974690 224.324525 166.949574 225.747803 163.956746 226.553040 C154.070607 229.213135 151.202077 239.386231 143.523976 244.406800 C127.261067 255.040833 107.109944 244.038819 102.362599 228.364747 C98.678700 216.201844 103.256642 207.220154 113.858967 198.632813 C121.167470 192.713257 126.558522 185.482789 128.635121 175.271607 C130.601857 165.600831 125.368641 160.649476 120.407460 154.769410 C118.801350 152.865845 116.930623 151.178956 115.124837 149.451600 C106.827778 141.514710 110.396138 133.572083 120.086171 130.033936 C132.031026 125.672425 143.925831 137.922913 143.986470 147.806580 C144.007191 151.185120 141.720235 154.888428 139.667805 157.881104 C137.649647 160.823670 135.615712 162.949952 136.983510 167.151429 C137.811146 169.693787 135.744588 173.057679 136.017842 175.954468 C136.145344 177.305909 133.644490 181.100587 139.517232 180.700501 C146.256795 180.241212 153.268452 182.826905 160.029469 184.595948 C161.115132 184.880006 162.577595 188.465760 162.012868 189.377564 C160.623585 191.620789 158.419789 193.830567 156.031758 194.826050 C154.311604 195.543091 151.096974 195.022217 149.716817 193.768189 C145.557026 189.988343 140.948506 190.694886 136.106160 190.973084 C130.509389 191.294556 126.281972 196.349671 127.206593 202.046570 C127.835408 205.921021 126.163075 208.795106 123.381642 211.480286 C117.915516 216.757203 117.783772 228.017884 122.904317 233.190919 C124.247792 234.548096 125.485005 236.947755 127.522481 233.492982 C128.030354 232.631837 130.581532 233.160340 132.056203 232.651795 C137.565144 230.751954 141.515950 226.973694 145.466786 222.693299 C148.353078 219.566224 153.013142 217.894776 157.124653 216.142640 C159.951893 214.937684 163.173756 214.588441 166.254353 214.062195 C174.447499 212.662476 180.918995 216.783814 187.471120 220.749573 C193.850209 224.610657 200.235890 228.485840 206.819264 231.976685 C212.286244 234.875611 222.323750 232.193970 225.224080 227.502198 C228.472554 222.247254 225.856892 211.580933 220.109791 207.472657 C214.611195 203.542054 208.837025 199.992982 203.389912 195.995545 C198.190632 192.179932 192.895802 192.799683 187.200062 194.453980 C183.876393 195.419373 180.182057 196.302430 176.893391 195.763734 C174.795399 195.420167 172.867726 192.583558 171.474599 190.463257 C171.147206 189.964966 173.058156 187.555176 174.346333 186.542237 C176.154042 185.120911 178.398121 184.271058 180.356953 183.022095 C185.228444 179.915833 190.687611 177.543336 190.794087 170.164612 C190.837636 167.148560 192.999379 164.156190 194.236348 161.169190 C194.543721 160.427064 195.002461 159.747620 195.391682 159.039368 C196.002461 159.721314 197.037007 160.339356 197.150990 161.096131 C197.653554 164.432007 198.141713 167.804993 198.178151 171.169556 C198.299458 182.368470 204.688649 191.550599 215.265523 195.010132 C222.347127 197.326417 228.734151 200.465760 233.386799 206.638001 C239.920735 215.305848 243.005513 230.139222 232.474080 239.289368 z"/><path class="selected"  fill="#000000" opacity="1.000000" stroke="none" 
 	d="
M111.224080 504.039368 C110.557393 511.425538 109.529042 518.303040 109.362324 525.201295 C109.265309 529.214661 107.374989 531.546570 104.187245 532.384522 C100.939229 533.238526 96.738453 534.058716 94.136433 532.673768 C91.950490 531.510255 90.787617 527.244996 90.382374 524.192200 C89.773976 519.609131 90.349873 514.880982 90.183095 510.223145 C90.056538 506.689393 89.231160 503.162964 89.295155 499.643799 C89.411580 493.238160 89.955678 486.840089 90.324940 480.439149 C90.648396 474.832032 90.817921 469.210267 91.345692 463.622376 C91.928731 457.449219 92.755635 451.294861 93.638356 445.155640 C94.379506 440.000977 95.482655 434.897645 96.194203 429.739686 C97.306813 421.674622 98.466389 413.602601 99.138936 405.494813 C99.587422 400.087952 99.101552 394.609986 99.266255 389.170899 C99.380025 385.414307 100.114277 381.673585 100.178700 377.919007 C100.323506 369.479249 99.618306 360.979493 100.388722 352.608094 C101.214619 343.634095 103.368886 334.784852 104.863270 325.867737 C105.166768 324.056702 105.247212 322.182496 105.200551 320.343262 C105.009511 312.809510 110.265217 308.511353 114.963093 303.927308 C115.415516 303.485657 116.860585 303.678712 117.647633 304.025147 C122.399281 306.116273 123.724354 309.602540 122.256825 314.680970 C120.002095 322.483460 119.875935 330.294190 120.971272 338.447755 C121.779317 344.462769 120.218953 350.786561 119.803731 356.978821 C119.564931 360.539612 119.324788 364.116456 119.401967 367.679200 C119.566670 375.282166 120.076161 382.879212 120.161214 390.481812 C120.199360 393.894410 119.553609 397.314332 119.224782 400.731568 C118.222828 411.143983 117.397786 421.577149 116.172047 431.963074 C115.086903 441.157899 113.006398 450.262635 112.376454 459.476258 C111.724782 469.008668 112.421742 478.479249 109.577504 487.982117 C108.198140 492.590760 110.557423 498.318360 111.224080 504.039368 z"/><path class="selected"  fill="#000000" opacity="1.000000" stroke="none" 
 	d="
M250.224080 533.039368 C250.224080 528.151612 250.472127 523.746400 250.164082 519.380372 C249.735798 513.310181 248.945027 507.262696 248.213032 501.217225 C246.581807 487.745118 244.800923 474.290345 243.268696 460.807252 C242.663228 455.479493 242.819356 450.062867 242.165791 444.743531 C241.043294 435.609009 239.445393 426.533570 238.270589 417.404542 C237.671223 412.746400 237.557454 408.025757 237.224080 403.333375 C236.224080 389.256226 234.920064 375.190247 234.404500 361.095399 C234.244526 356.721558 236.063801 352.222657 237.331868 347.884766 C237.667073 346.738099 239.322713 345.977357 240.371968 345.039368 C241.322713 346.242493 243.152058 347.498780 243.083027 348.640198 C242.594502 356.718140 247.373250 363.998414 245.606953 372.555726 C244.531514 377.766480 247.901265 383.735779 248.062703 389.398804 C248.295613 397.563538 253.475300 404.675049 252.349995 413.081299 C252.011922 415.606690 253.285847 418.319459 253.621480 420.971619 C253.953633 423.596863 253.869038 426.278687 254.261067 428.891602 C254.914998 433.248780 256.073018 437.542969 256.525654 441.914673 C257.120930 447.664368 259.335530 452.634034 261.999653 457.682740 C263.038838 459.652100 261.162373 462.971009 261.294514 465.641602 C261.784138 475.534791 261.676900 485.575928 263.457112 495.255616 C265.476155 506.233582 267.888325 517.030457 267.271077 528.294556 C266.914998 534.793275 267.029500 541.317689 266.933491 547.830628 C266.926594 548.301697 266.743306 548.892029 266.956502 549.226380 C270.647847 555.015687 267.426106 560.543152 266.130208 566.017152 C264.963460 570.945374 259.960469 572.504578 256.724507 568.757386 C254.185933 565.817811 251.933980 561.843323 251.445149 558.082947 C250.392354 549.985657 250.557393 541.730164 250.224080 533.039368 z"/><path class="selected"  fill="#000000" opacity="1.000000" stroke="none" 
 	d="
M35.224080 249.039368 C30.798878 248.777833 26.535603 245.065735 26.268574 241.319398 C25.989491 237.403931 27.921345 235.412720 31.976796 234.948121 C34.965718 234.605714 34.927968 231.956788 33.694172 230.140137 C30.575032 225.547608 29.842671 221.083436 30.984944 215.429139 C32.338215 208.730469 26.586445 204.588807 22.654133 200.070862 C21.744252 199.025391 20.396901 198.351441 19.224019 197.545533 C9.907246 191.142884 14.647297 180.069031 23.935231 177.989014 C27.406331 177.211671 30.865742 176.042786 32.483449 172.292969 C32.666768 171.867921 33.085621 171.527405 33.205708 171.095032 C33.881581 168.661744 35.783467 167.507081 38.210591 168.031739 C42.955495 169.057557 47.772389 169.822755 52.424000 171.165223 C53.910573 171.594117 55.735646 173.365662 55.992695 174.779786 C56.216603 176.011719 54.696614 178.557557 53.517628 178.862672 C49.834096 179.815797 45.917958 179.820679 42.147053 180.499268 C38.266652 181.197571 34.432301 182.184876 30.615773 183.189759 C28.990529 183.617676 27.198048 184.096314 25.963399 185.128297 C24.735615 186.154603 23.654317 187.835511 23.424428 189.366822 C23.315480 190.092469 25.200978 191.482606 26.423390 191.977112 C30.705525 193.709290 35.015553 195.477906 39.470143 196.635926 C41.864888 197.258362 44.623402 196.955445 47.132313 196.546143 C50.338704 196.022950 53.438618 194.870789 56.632161 194.226075 C57.327687 194.085633 58.513569 194.736756 58.980092 195.380799 C61.095631 198.301331 63.270436 201.229249 64.900471 204.421815 C65.424641 205.448426 64.687214 207.510071 63.925130 208.718812 C62.459614 211.043336 60.338582 211.979310 64.688832 214.621888 C68.567189 216.977845 70.403462 222.644288 73.241871 226.780457 C75.317647 229.805237 73.757496 232.864503 73.768483 235.957703 C73.795796 243.644410 80.151173 245.702881 85.807728 247.990479 C90.518757 249.895692 95.307271 251.818116 100.244954 252.879151 C103.419118 253.561280 103.757557 255.414612 103.044880 257.335511 C102.587239 258.569031 100.275990 260.063538 99.005055 259.891785 C91.194508 258.835999 83.463063 257.206360 75.662556 256.058045 C72.830098 255.640992 69.557912 255.215272 67.053822 256.214905 C62.479359 258.041077 59.368428 255.237488 55.624104 254.110779 C50.262959 252.497437 44.753102 251.379517 39.310689 250.034241 C38.106770 249.736573 36.919179 249.372681 35.224080 249.039368 z"/><path class="selected"  fill="#000000" opacity="1.000000" stroke="none" 
 	d="
M227.224080 577.039368 C224.802022 581.988587 220.564229 580.944031 216.687306 581.051209 C214.572926 581.109681 212.457936 581.246644 210.351887 581.441834 C209.766591 581.496033 209.059041 581.738465 208.670918 582.145569 C207.182362 583.707215 202.936238 585.325989 200.859273 583.924988 C193.252583 578.793885 185.493001 583.863099 177.880574 583.039490 C174.798604 582.705994 171.717366 582.365784 168.634511 582.041199 C165.386952 581.699402 162.013783 580.643128 158.911732 581.170716 C147.756123 583.067444 140.941029 576.479920 134.232930 569.407899 C133.859486 569.014222 133.716115 568.351624 133.295186 568.061219 C126.632710 563.465394 126.346486 562.162659 132.560933 557.510071 C134.175618 556.301087 138.122365 556.241273 139.764943 557.400696 C144.896657 561.022767 149.242451 560.176209 153.915059 556.896546 C158.207112 553.883973 165.284321 555.309998 168.224141 559.570374 C172.190297 565.318299 176.773396 566.376649 182.272481 562.417664 C186.864186 559.111878 191.610005 557.525208 196.491536 561.104920 C202.436604 565.464539 208.570210 564.596985 214.945943 562.838685 C216.304829 562.463929 217.718983 562.093323 219.112721 562.073304 C227.654988 561.950867 229.733601 564.959412 227.259846 573.553040 C226.994343 574.475526 227.224080 575.540467 227.224080 577.039368 z"/><path class="selected"  fill="#000000" opacity="1.000000" stroke="none" 
 	d="
M216.974080 144.289368 C217.834309 149.761170 217.125416 154.517823 211.136799 155.950867 C206.809926 156.986207 202.472401 159.710877 197.757588 156.262513 C195.882832 154.891297 192.922413 155.091370 190.808858 153.932862 C189.018880 152.951722 187.001881 151.304322 186.361409 149.499085 C183.978505 142.782654 187.723012 134.880555 194.460042 132.136902 C196.072957 131.479981 198.263692 131.685548 200.047108 132.101502 C207.206227 133.771363 214.856648 134.920167 216.974080 144.289368 z"/><path class="selected"  fill="#000000" opacity="1.000000" stroke="none" 
 	d="
M156.974080 124.789368 C161.165547 124.705994 165.183766 124.487855 169.006520 125.250001 C170.328847 125.513673 171.165578 128.213135 172.224080 129.800049 C170.852254 130.546509 169.544392 131.749940 168.096425 131.952637 C163.954487 132.532410 159.754994 132.941163 155.579548 132.928956 C153.792561 132.923768 152.009114 131.709168 150.224080 131.044068 C151.491444 129.275147 152.643818 127.403077 154.087605 125.792298 C154.603840 125.216370 155.824788 125.271973 156.974080 124.789368 z"/><path class="selected"  fill="#000000" opacity="1.000000" stroke="none" 
 	d="
M420.474080 493.789368 C420.890767 494.296754 421.235860 494.587403 421.195149 494.806214 C420.930989 496.225953 420.582966 497.630067 420.262532 499.039368 C418.916340 497.417115 416.433430 495.774598 416.461812 494.176697 C416.520100 490.898011 418.781453 493.059998 420.474080 493.789368 z"/><path class="selected"  fill="#000000" opacity="1.000000" stroke="none" 
 	d="
M217.224080 585.039368 C216.419331 585.372742 215.114613 585.705994 213.809865 586.039368 C213.770253 585.717103 213.730610 585.394715 213.690999 585.072449 C214.702016 585.061463 215.713063 585.050355 217.224080 585.039368 z"/><path class="selected"  fill="#000000" opacity="1.000000" stroke="none" 
 	d="
M411.974080 581.789368 C410.711812 582.360413 409.699605 582.681580 408.687337 583.002625 C409.076497 581.971253 409.412007 580.914735 409.880025 579.920472 C410.078572 579.498963 410.495869 579.092225 410.915425 578.878113 C412.819050 577.905579 414.755757 576.997254 416.700825 576.110291 C416.762410 576.082215 417.236287 576.697449 417.196309 576.745545 C415.989888 578.197449 414.769856 579.640931 413.481282 581.019715 C413.199544 581.321107 412.650166 581.372620 411.974080 581.789368 z"/></svg>